<svg width="174" height="32" viewBox="0 0 174 32" fill="none" xmlns="http://www.w3.org/2000/svg">
<path d="M20.5028 23.4683L25.0591 28.7981H3.05957V23.4683H20.5028Z" fill="#071A33"/>
<path d="M22.2822 12.7458L13.6038 21.5715L12.6122 22.5798L11.7395 23.4677L6.49623 28.7998H3.06445V23.5141L3.111 23.4677L8.88878 17.5919L9.61562 16.852L18.049 8.27905L22.2822 12.7458Z" fill="#00BFA6"/>
<path d="M27.1713 28.798H25.7989L21.2578 23.4705H22.633L27.1713 28.798Z" fill="#00BFA6"/>
<path d="M1.40039 7.4397H2.77277L7.31445 12.7667H5.93871L1.40039 7.4397Z" fill="#00BFA6"/>
<path d="M164.673 8.90078H165.834V11.8342H166.565V8.90078H167.726V8.27454H164.673V8.90078Z" fill="#505151"/>
<path d="M172.599 11.8342L172.592 8.27454H172.003L170.631 10.5585L169.229 8.27454H168.642V11.8342H169.333V9.63271L170.454 11.4397H170.787L171.901 9.5875L171.908 11.8342H172.599Z" fill="#505151"/>
<path d="M8.06993 12.7691L3.51367 7.43921H21.1526C21.7735 7.43921 22.2766 7.96033 22.2766 8.60296V12.7685H8.06993V12.7691Z" fill="#071A33"/>
<path d="M80.1199 28.9287C78.5972 28.9287 77.1721 28.6597 75.8838 28.1295C74.595 27.5994 73.4582 26.8369 72.5048 25.8636C71.5519 24.8909 70.8015 23.7402 70.2755 22.4442C69.7494 21.1487 69.4824 19.7058 69.4824 18.1554C69.4824 16.6051 69.7494 15.1621 70.2755 13.8667C70.8015 12.5707 71.5514 11.4205 72.5048 10.4478C73.4582 9.4745 74.595 8.71261 75.8838 8.18189C77.1721 7.65173 78.5972 7.38269 80.1199 7.38269C81.6425 7.38269 83.0901 7.65173 84.3694 8.18189C85.6492 8.71261 86.777 9.47507 87.7215 10.4478C88.6648 11.4205 89.4147 12.5701 89.9497 13.8661C90.4847 15.1633 90.7562 16.6062 90.7562 18.1554C90.7562 19.7046 90.4847 21.1527 89.9497 22.4594C89.4147 23.7656 88.6643 24.9158 87.7204 25.8783C86.7759 26.8414 85.6481 27.5988 84.3688 28.1295C83.0895 28.6597 81.6599 28.9287 80.1193 28.9287H80.1199ZM80.1199 12.4362C79.4211 12.4362 78.761 12.5701 78.158 12.8346C77.5563 13.0991 77.0257 13.4869 76.581 13.9871C76.134 14.4901 75.779 15.096 75.5249 15.7878C75.2703 16.4819 75.1413 17.2782 75.1413 18.1554C75.1413 19.0326 75.2703 19.8058 75.5255 20.5095C75.779 21.2115 76.1345 21.8225 76.581 22.3244C77.0257 22.8246 77.5563 23.2123 78.158 23.4768C78.7593 23.7413 79.4194 23.8758 80.1199 23.8758C80.8204 23.8758 81.4799 23.7419 82.0817 23.4774C82.6835 23.2134 83.214 22.8257 83.6588 22.3249C84.1046 21.8236 84.4596 21.2132 84.7143 20.5101C84.9689 19.8058 85.0984 19.014 85.0984 18.156C85.0984 17.298 84.9695 16.483 84.7148 15.7884C84.4602 15.0954 84.1052 14.4895 83.6588 13.9876C83.214 13.488 82.6835 13.1003 82.0817 12.8352C81.4788 12.5707 80.8192 12.4367 80.1199 12.4367V12.4362Z" fill="#071A33"/>
<path d="M34.2742 28.9287C32.7515 28.9287 31.3264 28.6597 30.0381 28.1295C28.7493 27.5994 27.6125 26.8369 26.6591 25.8636C25.7062 24.8909 24.9558 23.7402 24.4297 22.4442C23.9037 21.1487 23.6367 19.7058 23.6367 18.1554C23.6367 16.6051 23.9037 15.1621 24.4297 13.8667C24.9558 12.5707 25.7057 11.4205 26.6591 10.4478C27.6125 9.4745 28.7493 8.71261 30.0381 8.18189C31.3264 7.65173 32.7515 7.38269 34.2742 7.38269C35.7968 7.38269 37.2444 7.65173 38.5237 8.18189C39.8035 8.71261 40.9313 9.47507 41.8758 10.4478C42.8191 11.4205 43.569 12.5701 44.104 13.8661C44.639 15.1633 44.9105 16.6062 44.9105 18.1554C44.9105 19.7046 44.639 21.1527 44.104 22.4594C43.569 23.7656 42.8186 24.9158 41.8747 25.8783C40.9302 26.8414 39.8024 27.5988 38.5231 28.1295C37.2438 28.6597 35.8142 28.9287 34.2736 28.9287H34.2742ZM34.2742 12.4362C33.5754 12.4362 32.9153 12.5701 32.3124 12.8346C31.7106 13.0991 31.18 13.4869 30.7353 13.9871C30.2883 14.4901 29.9333 15.096 29.6792 15.7878C29.4246 16.4819 29.2956 17.2782 29.2956 18.1554C29.2956 19.0326 29.4246 19.8058 29.6798 20.5095C29.9333 21.2115 30.2888 21.8225 30.7353 22.3244C31.18 22.8246 31.7106 23.2123 32.3124 23.4768C32.9136 23.7413 33.5737 23.8758 34.2742 23.8758C34.9747 23.8758 35.6342 23.7419 36.236 23.4774C36.8378 23.2134 37.3683 22.8257 37.8131 22.3249C38.2589 21.8236 38.6139 21.2132 38.8686 20.5101C39.1232 19.8058 39.2527 19.014 39.2527 18.156C39.2527 17.298 39.1237 16.483 38.8691 15.7884C38.6145 15.0954 38.2595 14.4895 37.8131 13.9876C37.3683 13.488 36.8378 13.1003 36.236 12.8352C35.6331 12.5707 34.9735 12.4367 34.2742 12.4367V12.4362Z" fill="#071A33"/>
<path d="M65.9268 28.5189L60.5663 21.1651L58.7166 23.3106V28.5189H53.166V7.79187H58.7166V16.0794L65.8517 7.79187H72.0781L64.2409 16.9815L72.4539 28.5189H65.9268Z" fill="#071A33"/>
<path d="M46.3311 28.5189V13.3862H50.368C51.1133 13.3862 51.7196 13.9972 51.7196 14.7484V28.5189H46.3311Z" fill="#071A33"/>
<path d="M51.7202 7.79126H46.3311V11.6425H51.7202V7.79126Z" fill="#00BFA6"/>
<path d="M92.8037 28.4862V7.79187H97.3813V24.5834H107.3V28.4856H92.8037V28.4862Z" fill="#00BFA6"/>
<path d="M162.089 11.2803C161.392 10.1567 160.403 9.29474 159.122 8.69337C157.841 8.09256 156.315 7.79187 154.545 7.79187H145.982V28.4856H150.56V22.7799H154.544C156.315 22.7799 157.841 22.4798 159.122 21.8784C160.403 21.2776 161.392 20.4151 162.089 19.2915C162.785 18.1678 163.134 16.8379 163.134 15.3006C163.134 13.7632 162.785 12.4033 162.089 11.2803H162.089ZM157.455 17.9321C156.758 18.5629 155.703 18.8783 154.29 18.8783H150.56V11.6946H154.29C155.703 11.6946 156.758 12.01 157.455 12.6407C158.152 13.2715 158.5 14.1589 158.5 15.3011C158.5 16.4434 158.152 17.3019 157.455 17.9321Z" fill="#00BFA6"/>
<path d="M126.891 18.0977C126.882 18.1543 126.937 18.13 126.975 18.1317C128.041 18.1882 129.122 18.1594 130.188 18.2351C130.282 18.2419 130.378 18.2888 130.479 18.2696C128.607 20.7519 126.653 23.1778 124.771 25.6556C120.706 30.3168 113.413 29.9291 109.864 24.8378C106.605 20.1619 108.015 13.471 112.903 10.5958C116.911 8.23837 121.871 8.93753 125.042 12.3355L122.259 15.6866C121.941 15.4345 121.687 15.118 121.371 14.8608C118.282 12.3502 113.599 13.7587 112.609 17.6693C111.61 21.6173 114.869 25.3046 118.895 24.4517C120.671 24.0753 121.441 23.0303 122.67 21.8501C123.171 21.3686 123.693 20.9062 124.191 20.4219L120.535 20.1816L127.147 12.3112C131.522 7.66017 139.083 8.13664 142.489 13.6575C145.708 18.876 143.509 26.0377 137.792 28.2736C133.931 29.7838 129.514 28.6246 126.928 25.386L129.577 21.9558C129.642 21.9417 129.995 22.4673 130.071 22.5561C133.112 26.1349 138.803 24.619 139.593 19.998C140.446 15.0078 134.864 11.7217 130.845 14.6941C129.541 15.6583 128.203 16.947 126.995 18.0469C126.967 18.0723 126.931 18.0955 126.891 18.0977H126.891Z" fill="url(#paint0_linear_80_45)"/>
<path d="M116.836 3.0916C117.105 3.07803 117.582 3.0249 117.798 3.17016C118.182 3.42789 118.178 4.05696 117.755 4.25874C117.484 4.3876 117.238 4.326 116.963 4.35652C111.332 4.97541 106.471 8.59666 104.77 14.1102C104.669 14.4369 104.654 14.9501 104.348 15.1309C103.982 15.3469 103.469 15.0806 103.485 14.6398C103.497 14.3007 103.757 13.4557 103.868 13.0968C105.604 7.47304 111.01 3.39115 116.837 3.09216L116.836 3.0916Z" fill="#008E7A"/>
<path d="M117.212 6.12277C117.381 6.11486 117.514 6.09282 117.682 6.14482C118.175 6.29855 118.205 6.95701 117.778 7.20966C117.573 7.33061 117.027 7.28765 116.758 7.31817C113.416 7.70138 110.265 9.48629 108.36 12.2863C107.767 13.1595 107.364 14.0932 107.002 15.084C106.833 15.3022 106.433 15.2276 106.388 14.9439C106.346 14.6827 106.625 13.9175 106.727 13.6366C108.316 9.29186 112.65 6.33303 117.212 6.12221L117.212 6.12277Z" fill="#008F7A"/>
<defs>
<linearGradient id="paint0_linear_80_45" x1="126.04" y1="28.9287" x2="126.04" y2="9.13931" gradientUnits="userSpaceOnUse">
<stop stop-color="#008E7A"/>
<stop offset="1" stop-color="#00BFA6"/>
</linearGradient>
</defs>
</svg>
